<svg width="170" height="170" viewBox="0 0 170 170" fill="none" xmlns="http://www.w3.org/2000/svg">
<path d="M28.4416 28.8984C28.7906 28.5076 29.2099 28.1983 29.6737 27.9894C30.1375 27.7805 30.6359 27.6764 31.1383 27.6837H49.462C49.9723 27.6796 50.4782 27.7849 50.9506 27.9933C51.4231 28.2018 51.8526 28.5094 52.2145 28.8984C52.5936 29.265 52.8962 29.7146 53.1023 30.2174C53.3083 30.7202 53.413 31.2646 53.4096 31.8145V69.6162C53.3814 70.8911 53.1328 72.149 52.6766 73.3249C52.2968 74.4743 51.7045 75.5281 50.9359 76.4219C50.5994 76.7441 50.3265 77.1364 50.1335 77.5753C49.9405 78.0142 49.8313 78.4906 49.8125 78.9762C49.8219 79.4812 49.9263 79.9788 50.1195 80.4387C50.3126 80.8986 50.5904 81.3111 50.9359 81.6511C51.7204 82.485 52.3161 83.5036 52.6766 84.6275C53.1325 85.8035 53.3811 87.0614 53.4096 88.3362V127.598C53.413 128.148 53.3083 128.692 53.1023 129.195C52.8962 129.698 52.5936 130.148 52.2145 130.514C51.8526 130.903 51.4231 131.211 50.9506 131.419C50.4782 131.628 49.9723 131.733 49.462 131.729H41.7063C40.6742 131.693 39.6684 132.084 38.894 132.823C38.5361 133.152 38.2497 133.562 38.0555 134.024C37.8613 134.487 37.7641 134.99 37.7707 135.498C37.7757 136.005 37.6777 136.508 37.4836 136.97C37.2895 137.432 37.0041 137.843 36.6474 138.173C35.8795 138.906 34.883 139.297 33.859 139.267H31.1383C30.6298 139.271 30.1263 139.157 29.6613 138.935C29.1964 138.712 28.7806 138.384 28.4416 137.975C28.0818 137.583 27.7974 137.119 27.6046 136.608C27.4118 136.097 27.3144 135.55 27.3182 134.998V31.8145C27.3115 31.2713 27.4077 30.7323 27.6009 30.2308C27.7941 29.7293 28.0802 29.2758 28.4416 28.8984ZM38.5036 72.4031C38.9896 73.2172 39.5712 73.6178 40.2444 73.6178C40.6492 73.6172 41.0473 73.5054 41.4012 73.293C41.7552 73.0805 42.0534 72.7743 42.268 72.4031C42.8199 71.5055 43.0984 70.4437 43.0647 69.3664V43.0913C43.0942 42.0213 42.8159 40.9677 42.268 40.0761C42.0519 39.7038 41.7515 39.3973 41.3953 39.1855C41.0392 38.9737 40.6389 38.8637 40.2324 38.8657C39.5592 38.8657 38.9777 39.2965 38.4917 40.1579C37.9911 41.0547 37.7368 42.0871 37.7587 43.1343V69.4095C37.7315 70.4673 37.9904 71.5107 38.5036 72.4117V72.4031ZM42.268 86.0791C42.0468 85.719 41.7457 85.4247 41.3922 85.2231C41.0387 85.0214 40.6441 84.9188 40.2444 84.9247C39.5725 84.9247 38.9923 85.3296 38.5036 86.1394C37.9984 87.0118 37.7433 88.0265 37.7707 89.0555V116.3C37.7482 117.348 38.0025 118.382 38.5036 119.281C38.9896 120.142 39.5712 120.599 40.2444 120.676C40.6492 120.676 41.0473 120.564 41.4012 120.351C41.7552 120.139 42.0534 119.833 42.268 119.461C42.8199 118.564 43.0984 117.502 43.0647 116.425V89.0727C43.1049 88.0107 42.8253 86.9632 42.268 86.0877V86.0791ZM69.5822 32.4219C70.4135 33.0195 71.3969 33.3207 72.3945 33.2833H98.4739C99.4857 33.2879 100.455 33.7245 101.17 34.4982C101.886 35.2719 102.29 36.32 102.294 37.4141V40.2096C102.308 40.7725 102.216 41.3327 102.023 41.8556C101.83 42.3786 101.54 42.8533 101.171 43.2507C100.822 43.6414 100.402 43.9508 99.9385 44.1597C99.4747 44.3686 98.9763 44.4726 98.4739 44.4653H72.3945C71.8744 44.4512 71.3571 44.5514 70.874 44.76C70.3908 44.9686 69.9519 45.2811 69.5839 45.6787C69.2158 46.0763 68.9263 46.5506 68.7329 47.0728C68.5395 47.5951 68.4463 48.1544 68.4589 48.7167V64.4C68.4286 65.4972 68.7684 66.5688 69.4149 67.4151C69.7059 67.8032 70.0749 68.1144 70.4939 68.3249C70.913 68.5354 71.3709 68.6397 71.8328 68.6298C72.2767 68.6293 72.7146 68.5197 73.1134 68.3092C73.5123 68.0988 73.8617 67.7931 74.1353 67.4151C74.7817 66.5688 75.1215 65.4972 75.0913 64.4V60.631C75.0842 60.0532 75.1866 59.48 75.3921 58.9467C75.5977 58.4133 75.9019 57.9311 76.2863 57.5297C76.6398 57.1222 77.0668 56.7973 77.5409 56.5751C78.0149 56.3528 78.5261 56.2379 79.0428 56.2374H81.5125C82.0447 56.2346 82.5722 56.3458 83.0644 56.5648C83.5566 56.7837 84.0038 57.1059 84.3802 57.5129C84.7565 57.9198 85.0545 58.4034 85.257 58.9356C85.4594 59.4679 85.5623 60.0383 85.5597 60.6138V64.3827C85.5477 64.945 85.6413 65.504 85.8349 66.0259C86.0285 66.5479 86.318 67.0219 86.6859 67.4194C87.0538 67.8168 87.4925 68.1294 87.9754 68.3382C88.4583 68.547 88.9754 68.6477 89.4953 68.6341H98.4898C98.9984 68.6304 99.5018 68.7436 99.9668 68.9664C100.432 69.1892 100.848 69.5164 101.187 69.9263C101.546 70.3177 101.831 70.7822 102.024 71.2931C102.216 71.8039 102.314 72.351 102.31 72.9028V75.8103C102.307 76.9052 101.903 77.9543 101.188 78.7289C100.472 79.5036 99.5024 79.9408 98.4898 79.9454H89.4793C88.9594 79.9318 88.4424 80.0325 87.9595 80.2413C87.4766 80.4501 87.0379 80.7627 86.67 81.1601C86.302 81.5576 86.0125 82.0316 85.8189 82.5536C85.6253 83.0755 85.5317 83.6345 85.5437 84.1968V135.024C85.5442 135.582 85.4383 136.135 85.2327 136.647C85.0271 137.159 84.7262 137.62 84.3487 138C83.9784 138.417 83.5326 138.747 83.0391 138.969C82.5457 139.192 82.0152 139.302 81.4807 139.293H73.952C73.5258 139.281 73.1087 139.157 72.7367 138.932C72.3647 138.707 72.049 138.387 71.8169 138C71.2135 137.147 70.8961 136.098 70.9167 135.024V132.237C70.8837 131.192 71.076 130.152 71.4783 129.2C71.8528 128.388 72.3401 127.981 72.9402 127.981C73.5404 127.981 74.0463 127.577 74.4579 126.767C74.8967 125.827 75.109 124.782 75.0753 123.73V84.2011C75.0829 83.6359 74.9805 83.0754 74.7746 82.5559C74.5687 82.0365 74.264 81.5697 73.8803 81.1859C73.5175 80.797 73.0872 80.4895 72.6142 80.281C72.1411 80.0725 71.6346 79.9673 71.1238 79.9712H61.938C61.4181 79.9866 60.9007 79.8868 60.4177 79.6779C59.9348 79.469 59.4964 79.1554 59.1297 78.7565C58.7679 78.3786 58.4815 77.9244 58.2883 77.4221C58.0951 76.9199 57.9991 76.3801 58.0064 75.8361V48.7081C58.0255 47.6908 57.9116 46.6757 57.6678 45.6929C57.4448 44.8832 57.142 44.4783 56.7676 44.4783C56.4688 44.4783 56.2059 44.0734 55.9709 43.2636C55.7234 42.2728 55.6093 41.2486 55.6323 40.2225V37.4055C55.6136 36.4209 55.7277 35.4385 55.9709 34.4894C56.194 33.6796 56.4569 33.2747 56.7676 33.2747C57.142 33.2747 57.4448 32.9904 57.6678 32.4132C57.9012 31.7972 58.0164 31.1363 58.0064 30.4706C58.0136 30.0587 58.1212 29.6561 58.3185 29.3037C58.5158 28.9512 58.7956 28.6613 59.1297 28.4634C59.9746 27.9098 60.9509 27.6357 61.938 27.6751H64.6388C65.5852 27.652 66.5171 27.929 67.3196 28.472C67.6538 28.6699 67.9336 28.9598 68.1309 29.3123C68.3281 29.6647 68.4358 30.0673 68.443 30.4792C68.4589 31.2072 68.8333 31.8748 69.5822 32.4219ZM61.2649 85.6613C61.6292 85.265 62.0643 84.953 62.5436 84.7442C63.023 84.5354 63.5366 84.4341 64.0532 84.4466H65.5152C66.0358 84.4306 66.5539 84.5301 67.0376 84.739C67.5213 84.9479 67.9603 85.2618 68.3274 85.6613C68.6888 86.0387 68.9749 86.4921 69.1681 86.9937C69.3613 87.4952 69.4575 88.0341 69.4508 88.5774V135.011C69.4831 136.127 69.1213 137.214 68.439 138.052C68.1161 138.446 67.7173 138.759 67.2707 138.969C66.8242 139.179 66.3405 139.28 65.8537 139.267H59.6914C59.2934 139.271 58.9015 139.16 58.5558 138.947C58.2101 138.733 57.923 138.425 57.7236 138.052C57.2122 137.137 56.9588 136.08 56.9946 135.011V132.237C56.9631 131.198 57.1355 130.163 57.5005 129.2C57.8351 128.386 58.1897 127.981 58.5681 127.981C59.0169 127.981 59.3913 127.577 59.6914 126.767C60.0215 125.788 60.1769 124.75 60.1495 123.709V88.5774C60.1417 88.0348 60.2367 87.4962 60.4285 86.9947C60.6203 86.4932 60.9049 86.0394 61.2649 85.6613ZM98.0238 85.6613C98.3851 86.0387 98.6712 86.4921 98.8644 86.9937C99.0576 87.4952 99.1538 88.0341 99.1471 88.5774V123.709C99.1159 124.748 99.2883 125.783 99.653 126.745C99.9916 127.555 100.382 127.96 100.848 127.96C101.222 127.96 101.561 128.365 101.86 129.179C102.182 130.159 102.329 131.197 102.294 132.237V135.033C102.311 136.089 102.033 137.126 101.497 138.009C100.966 138.871 100.403 139.301 99.8083 139.301H93.4149C92.9315 139.3 92.4542 139.183 92.0171 138.96C91.5799 138.737 91.1936 138.412 90.8855 138.009C90.1902 137.201 89.8081 136.136 89.8179 135.033V88.5774C89.8144 88.0275 89.9192 87.483 90.1252 86.9803C90.3313 86.4775 90.6339 86.0279 91.013 85.6613C91.3933 85.2642 91.8425 84.9525 92.3347 84.7441C92.827 84.5356 93.3525 84.4345 93.881 84.4466H95.3389C95.8392 84.4416 96.3353 84.5467 96.7968 84.7555C97.2584 84.9643 97.6758 85.2725 98.0238 85.6613Z" fill="white"/>
<path d="M113.965 138.883C113.624 139.086 113.243 139.201 112.854 139.219C112.708 139.209 112.567 139.157 112.446 139.068C112.325 138.98 112.228 138.858 112.165 138.715C111.969 138.361 111.869 137.953 111.878 137.54V136.484C111.867 136.075 111.927 135.667 112.057 135.283C112.173 134.959 112.308 134.8 112.456 134.8C112.558 134.8 112.659 134.768 112.745 134.708C112.832 134.649 112.901 134.564 112.946 134.464C113.071 134.198 113.131 133.901 113.121 133.603V109.249C113.131 108.841 113.072 108.435 112.946 108.051C112.826 107.728 112.663 107.569 112.456 107.569C112.249 107.569 112.173 107.409 112.057 107.086C111.928 106.703 111.867 106.297 111.878 105.889V104.734C111.881 104.303 112.041 103.889 112.324 103.584C112.606 103.278 112.988 103.105 113.388 103.102H115.742C116.142 103.104 116.525 103.277 116.807 103.583C117.09 103.888 117.25 104.302 117.252 104.734V128.46C117.266 128.976 117.38 129.484 117.586 129.95C117.785 130.451 118.046 130.921 118.363 131.346L120.494 133.551C120.854 133.928 121.276 134.231 121.737 134.443C122.183 134.668 122.667 134.789 123.159 134.8H139.993C140.391 134.794 140.774 134.958 141.061 135.257C141.206 135.408 141.321 135.591 141.397 135.794C141.473 135.996 141.509 136.214 141.503 136.433V137.54C141.504 137.757 141.466 137.973 141.39 138.175C141.314 138.377 141.202 138.561 141.061 138.715C140.926 138.876 140.761 139.004 140.577 139.091C140.393 139.178 140.194 139.222 139.993 139.219H121.916C121.435 139.204 120.96 139.09 120.518 138.883C120.055 138.695 119.626 138.419 119.251 138.069L118.232 137.057C118.087 136.894 117.913 136.765 117.721 136.677C117.528 136.589 117.321 136.544 117.112 136.545C116.897 136.543 116.683 136.589 116.485 136.679C116.286 136.77 116.107 136.903 115.957 137.07L115.069 138.031C114.746 138.377 114.373 138.665 113.965 138.883ZM112.499 98.3466C112.503 97.8855 112.662 97.4415 112.946 97.0974L113.698 96.3307C113.844 96.1726 114.017 96.0482 114.208 95.9652C114.399 95.8823 114.604 95.8425 114.81 95.8483C115.01 95.8402 115.208 95.8792 115.393 95.9625C115.577 96.0458 115.742 96.1714 115.877 96.3307L116.586 97.0974C116.747 97.2546 116.874 97.4478 116.959 97.6635C117.044 97.8793 117.084 98.1124 117.076 98.3466C117.078 98.566 117.034 98.7831 116.95 98.9825C116.865 99.1819 116.741 99.3589 116.586 99.501L115.877 100.268C115.75 100.44 115.587 100.577 115.402 100.669C115.216 100.761 115.014 100.805 114.81 100.797C114.601 100.796 114.395 100.748 114.204 100.657C114.012 100.566 113.841 100.433 113.698 100.268L112.946 99.501C112.674 99.1864 112.515 98.7768 112.499 98.3466ZM141.061 99.0659C140.923 99.2215 140.757 99.3446 140.573 99.4276C140.39 99.5106 140.192 99.5517 139.993 99.5483H121.251C121.049 99.5502 120.849 99.5084 120.662 99.4256C120.476 99.3428 120.306 99.2205 120.164 99.0659C120.012 98.9132 119.892 98.7276 119.812 98.5212C119.732 98.3148 119.693 98.0923 119.697 97.8685V96.7615C119.695 96.545 119.736 96.3306 119.816 96.1323C119.897 95.9341 120.015 95.7565 120.164 95.6114C120.306 95.4568 120.476 95.3345 120.662 95.2517C120.849 95.1689 121.049 95.1271 121.251 95.129H139.993C140.393 95.1312 140.776 95.3039 141.058 95.6096C141.341 95.9153 141.501 96.3292 141.503 96.7615V97.8685C141.509 98.0908 141.473 98.3122 141.397 98.5189C141.321 98.7255 141.206 98.9132 141.061 99.0702V99.0659ZM138.017 113.069C137.869 113.22 137.752 113.403 137.672 113.605C137.591 113.807 137.55 114.025 137.551 114.245V125.776C137.547 126.004 137.587 126.23 137.667 126.44C137.747 126.65 137.866 126.841 138.017 126.999C138.157 127.16 138.325 127.288 138.512 127.375C138.699 127.462 138.901 127.508 139.105 127.508H139.993C140.192 127.504 140.389 127.545 140.572 127.627C140.756 127.71 140.922 127.832 141.061 127.986C141.206 128.143 141.321 128.33 141.397 128.537C141.473 128.744 141.509 128.965 141.503 129.188V130.243C141.504 130.461 141.466 130.677 141.39 130.879C141.314 131.08 141.202 131.264 141.061 131.419C140.926 131.579 140.761 131.708 140.577 131.794C140.393 131.881 140.194 131.925 139.993 131.923H138.26C137.772 131.912 137.29 131.798 136.842 131.587C136.397 131.407 136 131.111 135.687 130.725L134.532 129.571C134.205 129.167 133.949 128.703 133.775 128.201C133.584 127.723 133.479 127.21 133.464 126.689V114.245C133.454 113.803 133.287 113.382 132.998 113.069C132.709 112.757 132.319 112.576 131.911 112.565H129.333C129.126 112.56 128.92 112.602 128.728 112.689C128.537 112.776 128.364 112.906 128.222 113.069C128.08 113.224 127.968 113.408 127.892 113.61C127.817 113.811 127.778 114.027 127.78 114.245V126.685C127.743 127.758 127.35 128.781 126.672 129.567L125.609 130.721C125.284 131.112 124.873 131.409 124.414 131.582C123.957 131.792 123.468 131.906 122.972 131.918H121.239C120.83 131.908 120.441 131.727 120.152 131.414C119.863 131.102 119.696 130.681 119.686 130.239V129.183C119.68 128.959 119.719 128.735 119.799 128.528C119.879 128.321 120 128.135 120.152 127.981C120.295 127.828 120.465 127.707 120.651 127.625C120.838 127.543 121.038 127.502 121.239 127.503H122.127C122.328 127.505 122.526 127.46 122.71 127.373C122.893 127.285 123.057 127.156 123.191 126.995C123.337 126.834 123.452 126.642 123.528 126.432C123.605 126.222 123.642 125.998 123.637 125.772V114.245C123.639 114.027 123.6 113.811 123.524 113.609C123.447 113.407 123.334 113.223 123.191 113.069C123.057 112.909 122.893 112.781 122.709 112.694C122.526 112.607 122.328 112.563 122.127 112.565H121.239C120.83 112.554 120.44 112.373 120.15 112.06C119.861 111.746 119.695 111.324 119.686 110.881V109.839C119.681 109.614 119.72 109.391 119.8 109.184C119.88 108.977 120 108.791 120.152 108.637C120.295 108.484 120.465 108.363 120.651 108.281C120.838 108.199 121.038 108.157 121.239 108.159H139.981C140.18 108.156 140.377 108.196 140.56 108.279C140.744 108.361 140.91 108.483 141.049 108.637C141.194 108.795 141.307 108.982 141.383 109.189C141.459 109.395 141.496 109.616 141.491 109.839V110.894C141.493 111.113 141.454 111.329 141.379 111.532C141.303 111.734 141.191 111.919 141.049 112.074C140.914 112.235 140.749 112.363 140.565 112.45C140.381 112.537 140.182 112.58 139.981 112.578H139.093C138.892 112.578 138.693 112.621 138.509 112.705C138.324 112.789 138.157 112.913 138.017 113.069Z" fill="white"/>
<path d="M138.288 44.4177C138.134 44.2788 138.011 44.1039 137.928 43.9062C137.845 43.7086 137.805 43.4932 137.81 43.2763C137.809 43.063 137.768 42.8523 137.689 42.6568C137.61 42.4613 137.496 42.2852 137.352 42.1391C137.202 41.9761 137.023 41.848 136.826 41.7628C136.629 41.6776 136.417 41.6371 136.205 41.6438H117.415C117.203 41.6371 116.991 41.6776 116.794 41.7628C116.597 41.848 116.418 41.9761 116.268 42.1391C116.124 42.2852 116.009 42.4613 115.931 42.6568C115.852 42.8523 115.811 43.063 115.81 43.2763C115.816 43.4913 115.778 43.7051 115.699 43.9024C115.62 44.0997 115.501 44.2757 115.352 44.4177C115.035 44.7132 114.626 44.8672 114.208 44.8485H113.129C112.716 44.8473 112.32 44.6697 112.027 44.3542C111.735 44.0387 111.569 43.611 111.567 43.1643V38.8181C111.568 38.3566 111.732 37.9128 112.025 37.5776C112.163 37.4075 112.332 37.2717 112.523 37.1795C112.713 37.0872 112.92 37.0408 113.129 37.0435H140.487C140.701 37.0378 140.914 37.0808 141.111 37.1699C141.309 37.2589 141.487 37.392 141.634 37.5604C141.935 37.9007 142.1 38.3558 142.092 38.8267V43.1858C142.095 43.4073 142.056 43.627 141.977 43.8314C141.898 44.0359 141.781 44.2208 141.634 44.3747C141.484 44.5377 141.305 44.6657 141.108 44.7509C140.911 44.8361 140.699 44.8767 140.487 44.87H139.459C139.031 44.8799 138.614 44.7189 138.288 44.4177ZM119.865 73.385C119.332 73.5234 118.787 73.5971 118.24 73.6046H113.129C112.922 73.6072 112.716 73.5625 112.526 73.4734C112.336 73.3844 112.165 73.2529 112.025 73.0878C111.731 72.764 111.566 72.3274 111.567 71.8731V70.7316C111.562 70.5021 111.6 70.2738 111.679 70.0606C111.758 69.8473 111.875 69.6536 112.025 69.4911C112.169 69.3321 112.341 69.2062 112.53 69.1211C112.72 69.0359 112.924 68.9933 113.129 68.9957H116.152C116.688 68.9883 117.222 68.9219 117.746 68.7976C118.25 68.7008 118.737 68.5176 119.188 68.2549L120.299 67.626C120.697 67.4278 120.893 67.1952 120.893 66.9325C120.879 66.7433 120.817 66.5621 120.712 66.4102C120.606 66.2583 120.463 66.1421 120.299 66.0753L115.439 63.3961C115.017 63.1401 114.668 62.763 114.431 62.3063C114.18 61.8765 114.042 61.3805 114.033 60.872V57.8568C114.048 57.4132 113.926 56.9768 113.687 56.6163C113.593 56.465 113.467 56.3407 113.319 56.2543C113.171 56.168 113.006 56.1222 112.838 56.1209C112.668 56.1177 112.503 56.0657 112.358 55.9704C112.213 55.875 112.094 55.7396 112.014 55.5782C111.796 55.1889 111.685 54.7407 111.695 54.286V53.1962C111.678 52.7649 111.79 52.3391 112.014 51.9815C112.105 51.8362 112.228 51.7174 112.372 51.6355C112.515 51.5537 112.676 51.5112 112.838 51.512C113.011 51.5085 113.18 51.4567 113.328 51.3616C113.477 51.2665 113.601 51.1313 113.687 50.9693C113.913 50.6197 114.034 50.203 114.033 49.7761V49.5349C114.033 49.308 114.075 49.0833 114.157 48.8745C114.239 48.6657 114.36 48.4772 114.511 48.3202C114.663 48.1514 114.845 48.0181 115.047 47.9284C115.248 47.8388 115.464 47.7947 115.682 47.799H116.69C116.897 47.7979 117.102 47.8437 117.291 47.9335C117.48 48.0233 117.65 48.155 117.789 48.3202C118.084 48.644 118.249 49.0805 118.248 49.5349V49.7804C118.252 50.0061 118.3 50.2283 118.387 50.4334C118.474 50.6386 118.598 50.8224 118.753 50.9736C118.9 51.1426 119.077 51.2778 119.274 51.3711C119.47 51.4643 119.682 51.5137 119.897 51.5163H133.444C133.663 51.5199 133.88 51.4734 134.081 51.3799C134.283 51.2863 134.463 51.1479 134.611 50.9736C134.76 50.8188 134.88 50.6337 134.962 50.429C135.045 50.2242 135.09 50.0038 135.093 49.7804V49.4358C135.084 49.2135 135.121 48.9917 135.2 48.7862C135.279 48.5808 135.399 48.3967 135.551 48.247C135.87 47.9516 136.28 47.7977 136.699 47.8163H137.707C138.129 47.8149 138.536 47.9838 138.85 48.2901C139.01 48.43 139.139 48.6073 139.226 48.8088C139.314 49.0102 139.358 49.2305 139.356 49.4531V49.7977C139.358 50.233 139.499 50.6542 139.754 50.9908C139.859 51.1565 139.999 51.2924 140.162 51.3869C140.326 51.4814 140.509 51.5317 140.694 51.5336C140.882 51.5306 141.068 51.5736 141.238 51.6594C141.409 51.7452 141.559 51.8715 141.678 52.0289C141.941 52.3593 142.082 52.7822 142.076 53.2177V54.2731C142.088 54.7411 141.947 55.1986 141.678 55.5653C141.569 55.7311 141.425 55.8667 141.258 55.961C141.091 56.0553 140.906 56.1057 140.718 56.108C140.533 56.1041 140.349 56.1469 140.182 56.2328C140.015 56.3188 139.868 56.4457 139.754 56.6034C139.501 56.9578 139.372 57.3967 139.388 57.8439V60.8591C139.371 61.3719 139.22 61.8692 138.953 62.2934C138.702 62.7471 138.347 63.1226 137.922 63.3832L133.201 66.0107C132.835 66.2433 132.652 66.5061 132.652 66.8033C132.652 67.1005 132.847 67.3675 133.245 67.5958L134.484 68.2419C134.935 68.5047 135.422 68.6879 135.926 68.7847C136.449 68.909 136.983 68.9754 137.519 68.9828H140.499C140.709 68.9787 140.918 69.0205 141.113 69.1056C141.308 69.1908 141.485 69.3175 141.634 69.4783C141.783 69.6392 141.9 69.8307 141.979 70.0416C142.057 70.2525 142.096 70.4784 142.092 70.7058V71.8472C142.094 72.3016 141.929 72.7382 141.634 73.0619C141.487 73.2303 141.309 73.3633 141.111 73.4524C140.914 73.5415 140.701 73.5845 140.487 73.5788H135.332C134.807 73.5695 134.285 73.4958 133.775 73.3591C133.272 73.243 132.793 73.0331 132.357 72.7389L128.186 70.5076C127.738 70.2389 127.233 70.1023 126.72 70.1114C126.237 70.1104 125.761 70.2471 125.342 70.5076L121.311 72.7389C120.868 73.045 120.378 73.2637 119.865 73.385ZM126.72 63.7924C127.223 63.8083 127.723 63.7069 128.186 63.4952L133.592 60.6738C134.028 60.3997 134.398 60.0173 134.671 59.5582C134.941 59.1435 135.092 58.6522 135.105 58.1454V57.8482C135.111 57.6163 135.07 57.3859 134.987 57.1721C134.904 56.9582 134.78 56.7659 134.623 56.6077C134.468 56.4462 134.286 56.3194 134.085 56.2344C133.885 56.1494 133.671 56.1079 133.456 56.1123H119.901C119.686 56.1079 119.472 56.1494 119.272 56.2344C119.071 56.3194 118.888 56.4462 118.734 56.6077C118.577 56.7659 118.453 56.9582 118.37 57.1721C118.286 57.3859 118.246 57.6163 118.252 57.8482V58.1497C118.265 58.6565 118.416 59.1478 118.686 59.5625C118.959 60.0216 119.329 60.404 119.765 60.6782L125.262 63.4995C125.727 63.6966 126.221 63.796 126.72 63.7924Z" fill="white"/>
<path d="M155.09 170H14.9099C10.9568 169.995 7.1669 168.295 4.37167 165.273C1.57643 162.25 0.00421772 158.152 0 153.877L0 16.1226C0.00421772 11.848 1.57643 7.74981 4.37167 4.72723C7.1669 1.70465 10.9568 0.00456077 14.9099 0L155.09 0C159.043 0.00456077 162.833 1.70465 165.628 4.72723C168.424 7.74981 169.996 11.848 170 16.1226V153.877C169.996 158.152 168.424 162.25 165.628 165.273C162.833 168.295 159.043 169.995 155.09 170ZM14.9099 8.24866C12.9793 8.25094 11.1284 9.08125 9.76331 10.5574C8.39819 12.0336 7.63034 14.035 7.62823 16.1226V153.877C7.63034 155.965 8.39819 157.966 9.76331 159.443C11.1284 160.919 12.9793 161.749 14.9099 161.751H155.09C157.021 161.749 158.872 160.919 160.237 159.443C161.602 157.966 162.37 155.965 162.372 153.877V16.1226C162.37 14.035 161.602 12.0336 160.237 10.5574C158.872 9.08125 157.021 8.25094 155.09 8.24866H14.9099Z" fill="white"/>
<path d="M122.291 31.2933L129.405 34.5367C129.768 34.7056 130.177 34.7175 130.547 34.5701C130.918 34.4226 131.222 34.127 131.397 33.7442C131.6 33.3134 131.795 32.8569 131.99 32.4046C132.066 32.2258 132.108 32.0323 132.114 31.8355C132.119 31.6388 132.088 31.4429 132.022 31.2596C131.955 31.0763 131.856 30.9092 131.729 30.7685C131.601 30.6277 131.449 30.5161 131.281 30.4404L123.912 27.0936C123.53 26.9205 123.1 26.9186 122.717 27.0883C122.334 27.2579 122.029 27.5852 121.868 27.9981L121.442 29.0922C121.285 29.5058 121.287 29.9698 121.446 30.3824C121.605 30.795 121.909 31.1226 122.291 31.2933Z" fill="white"/>
</svg>
